<svg width="7" height="13" viewBox="0 0 7 13" fill="none" xmlns="http://www.w3.org/2000/svg">
<path d="M6.82907 11.8363C6.88326 11.8905 6.92625 11.9548 6.95558 12.0256C6.9849 12.0964 7 12.1723 7 12.249C7 12.3256 6.9849 12.4015 6.95558 12.4723C6.92625 12.5431 6.88326 12.6074 6.82907 12.6616C6.77488 12.7158 6.71054 12.7588 6.63974 12.7881C6.56893 12.8174 6.49305 12.8325 6.41641 12.8325C6.33977 12.8325 6.26388 12.8174 6.19308 12.7881C6.12227 12.7588 6.05794 12.7158 6.00375 12.6616L0.171065 6.82893C0.116834 6.77476 0.0738134 6.71044 0.0444609 6.63963C0.0151083 6.56882 0 6.49292 0 6.41627C0 6.33962 0.0151083 6.26372 0.0444609 6.19292C0.0738134 6.12211 0.116834 6.05778 0.171065 6.00361L6.00375 0.17093C6.11319 0.0614854 6.26163 -3.05105e-09 6.41641 0C6.57119 3.05105e-09 6.71962 0.0614854 6.82907 0.17093C6.93851 0.280375 7 0.428814 7 0.583592C7 0.738371 6.93851 0.88681 6.82907 0.996254L1.40832 6.41627L6.82907 11.8363Z" fill="#943893"/>
</svg>
